<?xml version="1.0" standalone="no"?>
<!DOCTYPE svg PUBLIC "-//W3C//DTD SVG 20010904//EN"
 "http://www.w3.org/TR/2001/REC-SVG-20010904/DTD/svg10.dtd">
<svg version="1.0" xmlns="http://www.w3.org/2000/svg"
 width="4167.000000pt" height="4167.000000pt" viewBox="0 0 4167.000000 4167.000000"
 preserveAspectRatio="xMidYMid meet">
<metadata>
Created by potrace 1.11, written by Peter Selinger 2001-2013
</metadata>
<g transform="translate(0.000000,4167.000000) scale(0.100000,-0.100000)"
fill="#000000" stroke="none">
<path d="M4955 34611 c3 -7 54 -97 114 -200 59 -102 119 -206 133 -231 59
-104 251 -436 258 -445 4 -5 21 -35 37 -65 17 -30 122 -212 233 -405 112 -192
213 -368 225 -390 13 -22 46 -80 75 -130 100 -171 244 -420 264 -457 87 -154
141 -246 154 -260 8 -10 12 -18 9 -18 -4 0 13 -32 38 -70 25 -39 45 -73 45
-76 0 -3 37 -69 83 -147 46 -78 106 -180 133 -227 27 -46 54 -92 59 -101 6
-10 17 -30 26 -46 14 -26 262 -457 587 -1018 79 -137 179 -310 221 -383 42
-73 84 -147 95 -165 10 -18 52 -90 94 -162 41 -71 83 -143 92 -160 9 -16 68
-118 130 -225 62 -107 122 -211 132 -230 11 -19 54 -93 96 -165 41 -71 83
-143 92 -160 18 -31 72 -125 223 -385 49 -85 99 -171 109 -190 44 -77 69 -121
154 -265 48 -82 101 -175 117 -205 17 -30 41 -72 54 -93 13 -21 33 -55 45 -75
11 -20 81 -142 155 -270 74 -128 142 -248 152 -265 99 -175 397 -688 412 -709
10 -15 19 -30 19 -33 0 -6 95 -171 134 -233 14 -23 26 -44 26 -46 0 -3 25 -46
55 -96 30 -50 55 -93 55 -95 0 -3 13 -26 29 -52 62 -103 145 -248 146 -253 0
-3 8 -16 17 -30 8 -14 69 -117 133 -230 65 -113 141 -243 168 -290 73 -124 88
-150 113 -196 12 -22 34 -59 48 -82 14 -23 26 -46 26 -52 0 -5 5 -10 11 -10 5
0 8 -4 4 -9 -3 -5 -1 -12 4 -15 5 -4 37 -55 71 -114 34 -59 65 -114 70 -122
12 -19 331 -573 359 -622 26 -46 20 -37 226 -393 92 -159 186 -321 208 -360
22 -38 70 -122 107 -185 37 -63 79 -135 92 -160 14 -25 57 -99 95 -165 81
-139 367 -635 394 -682 49 -86 259 -448 334 -578 51 -88 129 -223 186 -322 10
-18 69 -119 130 -225 61 -106 123 -213 137 -238 13 -25 28 -49 32 -55 4 -5 18
-30 32 -55 14 -25 72 -126 130 -225 57 -99 116 -200 130 -225 66 -116 293
-508 314 -541 13 -21 24 -41 24 -43 0 -3 24 -45 53 -93 29 -48 60 -103 68
-120 7 -18 17 -33 21 -33 5 0 8 -4 8 -8 0 -7 206 -367 261 -457 10 -16 22 -37
26 -45 4 -8 26 -48 50 -88 24 -41 43 -75 43 -77 0 -2 23 -40 50 -85 28 -45 50
-84 50 -86 0 -3 38 -69 83 -147 46 -78 164 -281 262 -452 98 -170 190 -330
205 -355 25 -41 117 -201 167 -290 11 -20 53 -92 93 -160 40 -69 82 -141 92
-160 37 -65 361 -625 380 -655 10 -16 21 -36 25 -44 3 -8 66 -116 138 -241 72
-125 135 -233 138 -241 4 -8 15 -27 25 -44 11 -16 193 -331 406 -700 213 -368
391 -677 396 -685 13 -21 470 -815 508 -882 11 -18 68 -118 129 -223 60 -104
127 -219 147 -255 20 -36 41 -72 46 -80 20 -33 99 -167 122 -210 14 -25 49
-85 78 -135 29 -49 62 -108 75 -130 38 -67 133 -232 225 -390 48 -82 99 -170
112 -195 14 -25 62 -108 107 -184 44 -76 81 -140 81 -141 0 -2 34 -60 75 -130
41 -69 75 -128 75 -130 0 -1 37 -65 81 -141 45 -77 93 -159 107 -184 13 -25
28 -49 32 -55 4 -5 21 -35 38 -65 16 -30 66 -117 111 -194 44 -76 81 -142 81
-147 0 -5 5 -9 10 -9 6 0 10 -5 10 -10 0 -6 35 -70 77 -143 42 -73 113 -195
158 -272 45 -77 84 -147 88 -155 5 -8 13 -24 20 -35 46 -76 117 -198 117 -201
0 -2 18 -33 40 -69 22 -36 40 -67 40 -69 0 -2 33 -60 73 -127 62 -106 142
-245 223 -387 11 -20 78 -136 148 -257 262 -451 361 -622 396 -685 20 -36 79
-137 130 -225 51 -88 101 -175 111 -193 11 -17 27 -47 38 -65 10 -17 27 -47
38 -65 l21 -33 65 113 c36 63 75 132 87 153 12 22 37 65 55 95 31 51 85 145
295 510 46 80 103 178 127 218 23 40 43 75 43 77 0 3 17 33 38 67 21 35 50 83
64 108 21 38 120 209 191 332 44 75 172 297 195 338 14 25 45 78 69 118 24 41
43 78 43 83 0 5 5 9 10 9 6 0 10 4 10 10 0 5 72 134 160 286 88 151 160 278
160 282 0 3 6 13 14 21 7 9 27 41 43 71 17 30 53 93 80 140 28 47 111 191 185
320 75 129 161 280 193 335 32 55 66 114 75 130 10 17 43 75 75 130 32 55 66
114 75 130 10 17 43 75 75 130 32 55 106 183 165 285 140 243 317 550 450 780
59 102 184 318 278 480 93 162 233 405 311 539 78 134 141 247 141 252 0 5 5
9 12 9 6 0 8 3 5 7 -4 3 -1 13 6 22 12 13 107 176 194 331 19 32 60 104 306
530 49 85 99 171 110 190 10 19 52 91 92 160 40 69 82 141 93 160 11 19 86
150 167 290 81 140 155 269 165 285 56 98 563 977 687 1190 60 105 121 210
135 235 24 43 223 386 266 460 12 19 41 71 67 115 25 44 60 105 78 136 17 30
79 137 137 237 58 101 113 197 124 215 62 106 363 630 384 667 13 25 28 50 32
55 4 6 17 27 29 48 50 88 120 210 131 227 6 8 13 22 17 30 4 8 27 48 51 89 44
75 315 545 442 766 10 17 46 80 82 141 36 61 68 117 71 125 4 8 17 30 28 49
21 34 449 773 487 841 34 60 82 144 92 159 5 8 37 64 72 125 35 60 68 119 75
130 7 11 15 27 19 35 4 8 25 43 46 78 21 34 38 64 38 67 0 2 24 44 53 92 29
48 56 95 60 103 4 8 16 30 27 48 17 27 163 280 231 400 11 17 28 47 38 65 36
61 152 262 296 512 54 94 215 373 358 620 144 248 287 497 320 555 33 58 79
137 102 175 23 39 45 77 48 85 4 8 15 29 26 45 16 26 100 171 151 260 57 100
220 383 297 515 49 85 142 245 205 355 63 110 141 245 173 300 147 253 212
367 263 455 30 52 62 109 72 125 9 17 43 75 75 130 32 55 124 215 205 355 81
140 157 272 168 292 12 20 32 55 46 77 15 22 26 43 26 46 0 2 17 33 38 67 21
35 52 88 69 118 16 30 62 109 100 175 39 66 122 210 185 320 64 110 125 216
136 235 12 19 27 46 35 60 7 14 81 142 164 285 83 143 160 276 170 295 11 19
52 90 92 157 39 68 71 125 71 128 0 3 8 18 19 33 23 34 118 198 161 277 18 33
39 67 46 76 8 8 14 18 14 21 0 2 31 58 68 124 234 406 305 530 312 539 4 6 19
30 32 55 32 57 42 75 177 308 61 106 120 207 130 225 10 17 32 56 50 85 17 29
31 56 31 59 0 4 6 14 14 22 7 9 27 41 43 71 17 30 63 111 103 180 40 69 83
143 95 165 13 22 46 81 75 130 29 50 61 106 72 125 33 57 128 224 138 240 29
47 76 128 87 149 8 14 37 65 66 114 29 48 61 105 73 125 11 20 73 129 139 242
65 113 150 261 190 330 39 69 107 185 150 259 42 74 85 149 95 165 10 17 68
119 130 226 345 598 449 777 517 893 41 71 72 132 68 135 -4 4 -7166 7 -15916
7 -13453 0 -15908 -2 -15904 -14z"/>
<path d="M4367 26514 c-1 -1 -49 -5 -107 -8 -712 -44 -1397 -396 -1832 -939
-122 -153 -176 -236 -268 -412 -85 -164 -180 -432 -205 -576 -3 -19 -8 -41
-10 -49 -3 -8 -7 -35 -10 -60 -3 -25 -7 -56 -10 -70 -2 -14 -7 -59 -11 -100
-7 -85 -7 -1984 0 -2045 3 -22 8 -65 11 -95 23 -205 113 -487 222 -695 241
-461 675 -855 1181 -1071 17 -8 48 -21 68 -30 108 -48 445 -143 563 -159 76
-10 128 -18 144 -21 31 -5 194 -15 337 -18 246 -7 434 -52 635 -151 280 -139
469 -358 541 -630 17 -66 18 -125 18 -1015 l0 -945 -26 -96 c-159 -589 -802
-946 -1448 -803 -345 76 -655 307 -813 605 -46 86 -93 236 -104 329 -4 41 -8
328 -8 638 l0 562 -42 1 c-56 0 -1190 0 -1245 0 l-43 -1 1 -578 c2 -522 6
-729 18 -802 3 -14 10 -59 16 -100 17 -110 64 -283 110 -410 204 -552 638
-1034 1182 -1313 136 -70 294 -137 320 -137 9 0 19 -4 22 -9 3 -5 16 -11 28
-14 13 -3 55 -15 93 -26 39 -12 79 -23 90 -25 11 -3 49 -11 85 -20 36 -8 83
-18 105 -21 22 -3 49 -8 61 -10 11 -2 45 -7 75 -10 30 -3 70 -9 89 -12 59 -9
402 -11 465 -3 33 5 85 11 116 14 31 4 66 8 77 11 11 2 35 6 53 9 289 49 582
155 849 309 375 216 707 548 922 922 103 180 204 439 244 630 13 58 25 123 29
155 3 19 7 51 10 70 2 19 7 71 11 115 8 98 8 1857 0 1940 -11 127 -19 174 -43
285 -57 259 -168 507 -330 735 -23 33 -48 67 -55 75 -8 8 -32 38 -55 65 -214
261 -549 510 -913 679 -166 77 -439 172 -571 200 -13 3 -67 15 -119 26 -52 11
-108 22 -125 25 -16 2 -59 8 -95 14 -60 9 -95 12 -270 26 -173 15 -432 86
-581 160 -318 159 -518 406 -559 690 -8 57 -10 348 -8 1010 4 1034 0 956 73
1140 114 286 372 521 695 637 63 22 62 22 156 42 423 92 858 -32 1160 -329
130 -128 215 -262 268 -421 45 -135 48 -187 48 -825 l0 -606 664 0 664 0 1 26
c0 14 1 292 1 617 0 519 -3 659 -16 764 -2 14 -7 52 -11 85 -10 82 -59 281
-96 388 -83 241 -194 451 -348 656 -31 40 -65 85 -75 100 -11 14 -81 87 -155
161 -407 405 -897 641 -1501 724 -80 11 -405 27 -413 20z"/>
<path d="M34963 26510 c-18 -5 -18 -195 -18 -5647 l0 -5643 30 -1 c180 -4
1296 0 1303 5 6 4 10 858 10 2406 0 1321 2 2404 5 2407 4 3 497 6 1097 7 962
1 1090 -1 1091 -14 0 -8 1 -1094 1 -2412 l1 -2398 21 -1 c25 -1 1246 0 1293 0
l31 1 0 5645 0 5645 -26 1 c-15 0 -317 1 -672 2 l-645 0 -1 -2560 c0 -1408 -3
-2564 -7 -2570 -4 -6 -371 -10 -1097 -10 l-1090 0 -1 31 c0 17 0 1173 -1 2569
0 1887 -3 2537 -12 2538 -52 4 -1299 3 -1313 -1z"/>
</g>
</svg>
